STARTFONT 2.1
FONT -FontForge-Dogica Pixel-Bold-R-Normal--16-150-75-75-P-158-ISO10646-1
SIZE 15 75 75
FONTBOUNDINGBOX 18 16 0 -2
COMMENT "Generated by fontforge, http://fontforge.sourceforge.net"
COMMENT "OFL Copyright (c) 2020, Roberto Mocci"
STARTPROPERTIES 40
FOUNDRY "FontForge"
FAMILY_NAME "Dogica Pixel"
WEIGHT_NAME "Bold"
SLANT "R"
SETWIDTH_NAME "Normal"
ADD_STYLE_NAME ""
PIXEL_SIZE 16
POINT_SIZE 150
RESOLUTION_X 75
RESOLUTION_Y 75
SPACING "P"
AVERAGE_WIDTH 158
CHARSET_REGISTRY "ISO10646"
CHARSET_ENCODING "1"
FONTNAME_REGISTRY ""
CHARSET_COLLECTIONS "ISO10646-1"
FONT_NAME "Dogica_Pixel_Bold"
FACE_NAME "Dogica Pixel Bold"
COPYRIGHT "OFL Copyright (c) 2020, Roberto Mocci"
FONT_VERSION "001.000"
FONT_ASCENT 13
FONT_DESCENT 3
UNDERLINE_POSITION 0
UNDERLINE_THICKNESS 2
X_HEIGHT 11
CAP_HEIGHT 13
DEFAULT_CHAR 1
RAW_ASCENT 800
RAW_DESCENT 200
NORM_SPACE 8
RELATIVE_WEIGHT 70
RELATIVE_SETWIDTH 50
SUPERSCRIPT_X 0
SUPERSCRIPT_Y 7
SUPERSCRIPT_SIZE 11
SUBSCRIPT_X 0
SUBSCRIPT_Y 2
SUBSCRIPT_SIZE 11
AVG_LOWERCASE_WIDTH 166
AVG_UPPERCASE_WIDTH 168
ENDPROPERTIES
CHARS 262
STARTCHAR uni0000
ENCODING 0
SWIDTH 1000 0
DWIDTH 16 0
BBX 1 1 0 0
BITMAP
00
ENDCHAR
STARTCHAR uni0001
ENCODING 1
SWIDTH 1000 0
DWIDTH 16 0
BBX 1 1 0 0
BITMAP
00
ENDCHAR
STARTCHAR uni0002
ENCODING 2
SWIDTH 1000 0
DWIDTH 16 0
BBX 1 1 0 0
BITMAP
00
ENDCHAR
STARTCHAR uni0003
ENCODING 3
SWIDTH 1000 0
DWIDTH 16 0
BBX 1 1 0 0
BITMAP
00
ENDCHAR
STARTCHAR uni0004
ENCODING 4
SWIDTH 1000 0
DWIDTH 16 0
BBX 1 1 0 0
BITMAP
00
ENDCHAR
STARTCHAR uni0005
ENCODING 5
SWIDTH 1000 0
DWIDTH 16 0
BBX 1 1 0 0
BITMAP
00
ENDCHAR
STARTCHAR uni0006
ENCODING 6
SWIDTH 1000 0
DWIDTH 16 0
BBX 1 1 0 0
BITMAP
00
ENDCHAR
STARTCHAR uni0007
ENCODING 7
SWIDTH 1000 0
DWIDTH 16 0
BBX 1 1 0 0
BITMAP
00
ENDCHAR
STARTCHAR uni0008
ENCODING 8
SWIDTH 1000 0
DWIDTH 16 0
BBX 1 1 0 0
BITMAP
00
ENDCHAR
STARTCHAR uni0009
ENCODING 9
SWIDTH 1000 0
DWIDTH 16 0
BBX 1 1 0 0
BITMAP
00
ENDCHAR
STARTCHAR uni000A
ENCODING 10
SWIDTH 1000 0
DWIDTH 16 0
BBX 1 1 0 0
BITMAP
00
ENDCHAR
STARTCHAR uni000B
ENCODING 11
SWIDTH 1000 0
DWIDTH 16 0
BBX 1 1 0 0
BITMAP
00
ENDCHAR
STARTCHAR uni000C
ENCODING 12
SWIDTH 1000 0
DWIDTH 16 0
BBX 1 1 0 0
BITMAP
00
ENDCHAR
STARTCHAR uni000D
ENCODING 13
SWIDTH 1000 0
DWIDTH 16 0
BBX 1 1 0 0
BITMAP
00
ENDCHAR
STARTCHAR uni000E
ENCODING 14
SWIDTH 1000 0
DWIDTH 16 0
BBX 1 1 0 0
BITMAP
00
ENDCHAR
STARTCHAR uni000F
ENCODING 15
SWIDTH 1000 0
DWIDTH 16 0
BBX 1 1 0 0
BITMAP
00
ENDCHAR
STARTCHAR uni0010
ENCODING 16
SWIDTH 1000 0
DWIDTH 16 0
BBX 1 1 0 0
BITMAP
00
ENDCHAR
STARTCHAR uni0011
ENCODING 17
SWIDTH 1000 0
DWIDTH 16 0
BBX 1 1 0 0
BITMAP
00
ENDCHAR
STARTCHAR uni0012
ENCODING 18
SWIDTH 1000 0
DWIDTH 16 0
BBX 1 1 0 0
BITMAP
00
ENDCHAR
STARTCHAR uni0013
ENCODING 19
SWIDTH 1000 0
DWIDTH 16 0
BBX 1 1 0 0
BITMAP
00
ENDCHAR
STARTCHAR uni0014
ENCODING 20
SWIDTH 1000 0
DWIDTH 16 0
BBX 1 1 0 0
BITMAP
00
ENDCHAR
STARTCHAR uni0015
ENCODING 21
SWIDTH 1000 0
DWIDTH 16 0
BBX 1 1 0 0
BITMAP
00
ENDCHAR
STARTCHAR uni0016
ENCODING 22
SWIDTH 1000 0
DWIDTH 16 0
BBX 1 1 0 0
BITMAP
00
ENDCHAR
STARTCHAR uni0017
ENCODING 23
SWIDTH 1000 0
DWIDTH 16 0
BBX 1 1 0 0
BITMAP
00
ENDCHAR
STARTCHAR uni0018
ENCODING 24
SWIDTH 1000 0
DWIDTH 16 0
BBX 1 1 0 0
BITMAP
00
ENDCHAR
STARTCHAR uni0019
ENCODING 25
SWIDTH 1000 0
DWIDTH 16 0
BBX 1 1 0 0
BITMAP
00
ENDCHAR
STARTCHAR uni001A
ENCODING 26
SWIDTH 1000 0
DWIDTH 16 0
BBX 1 1 0 0
BITMAP
00
ENDCHAR
STARTCHAR uni001B
ENCODING 27
SWIDTH 1000 0
DWIDTH 16 0
BBX 1 1 0 0
BITMAP
00
ENDCHAR
STARTCHAR uni001C
ENCODING 28
SWIDTH 1000 0
DWIDTH 16 0
BBX 1 1 0 0
BITMAP
00
ENDCHAR
STARTCHAR uni001D
ENCODING 29
SWIDTH 1000 0
DWIDTH 16 0
BBX 1 1 0 0
BITMAP
00
ENDCHAR
STARTCHAR uni001E
ENCODING 30
SWIDTH 1000 0
DWIDTH 16 0
BBX 1 1 0 0
BITMAP
00
ENDCHAR
STARTCHAR uni001F
ENCODING 31
SWIDTH 1000 0
DWIDTH 16 0
BBX 1 1 0 0
BITMAP
00
ENDCHAR
STARTCHAR space
ENCODING 32
SWIDTH 500 0
DWIDTH 8 0
BBX 1 1 0 0
BITMAP
00
ENDCHAR
STARTCHAR exclam
ENCODING 33
SWIDTH 500 0
DWIDTH 8 0
BBX 4 14 2 0
BITMAP
F0
F0
F0
F0
F0
F0
F0
F0
F0
F0
00
00
F0
F0
ENDCHAR
STARTCHAR quotedbl
ENCODING 34
SWIDTH 1000 0
DWIDTH 16 0
BBX 12 6 2 6
BITMAP
3CF0
3CF0
3CF0
3CF0
F3C0
F3C0
ENDCHAR
STARTCHAR numbersign
ENCODING 35
SWIDTH 1125 0
DWIDTH 18 0
BBX 14 12 2 0
BITMAP
3CF0
3CF0
FFFC
FFFC
3CF0
3CF0
3CF0
3CF0
FFFC
FFFC
3CF0
3CF0
ENDCHAR
STARTCHAR dollar
ENCODING 36
SWIDTH 1125 0
DWIDTH 18 0
BBX 14 14 2 -2
BITMAP
3FF0
3FF0
F33C
F33C
F300
F300
3FF0
3FF0
033C
033C
F33C
F33C
3FF0
3FF0
ENDCHAR
STARTCHAR percent
ENCODING 37
SWIDTH 1250 0
DWIDTH 20 0
BBX 16 16 2 -2
BITMAP
303C
303C
CCF0
CCF0
FCF0
FCF0
33C0
33C0
03CC
03CC
0F33
0F33
0F3F
0F3F
3C0C
3C0C
ENDCHAR
STARTCHAR ampersand
ENCODING 38
SWIDTH 1125 0
DWIDTH 18 0
BBX 14 14 2 0
BITMAP
3F00
3F00
F3C0
F3C0
F3C0
F3C0
3F00
3F00
F3FC
F3FC
F0F0
F0F0
3FFC
3FFC
ENDCHAR
STARTCHAR quotesingle
ENCODING 39
SWIDTH 625 0
DWIDTH 10 0
BBX 6 6 2 6
BITMAP
3C
3C
3C
3C
F0
F0
ENDCHAR
STARTCHAR parenleft
ENCODING 40
SWIDTH 625 0
DWIDTH 10 0
BBX 6 14 2 0
BITMAP
3C
3C
F0
F0
F0
F0
F0
F0
F0
F0
F0
F0
3C
3C
ENDCHAR
STARTCHAR parenright
ENCODING 41
SWIDTH 625 0
DWIDTH 10 0
BBX 6 14 2 0
BITMAP
F0
F0
3C
3C
3C
3C
3C
3C
3C
3C
3C
3C
F0
F0
ENDCHAR
STARTCHAR asterisk
ENCODING 42
SWIDTH 1000 0
DWIDTH 16 0
BBX 12 10 2 2
BITMAP
0F00
0F00
FFF0
FFF0
3FC0
3FC0
FFF0
FFF0
0F00
0F00
ENDCHAR
STARTCHAR plus
ENCODING 43
SWIDTH 1000 0
DWIDTH 16 0
BBX 12 10 2 2
BITMAP
0F00
0F00
0F00
0F00
FFF0
FFF0
0F00
0F00
0F00
0F00
ENDCHAR
STARTCHAR comma
ENCODING 44
SWIDTH 625 0
DWIDTH 10 0
BBX 6 6 2 -2
BITMAP
3C
3C
3C
3C
F0
F0
ENDCHAR
STARTCHAR hyphen
ENCODING 45
SWIDTH 875 0
DWIDTH 14 0
BBX 10 2 2 4
BITMAP
FFC0
FFC0
ENDCHAR
STARTCHAR period
ENCODING 46
SWIDTH 500 0
DWIDTH 8 0
BBX 4 4 2 0
BITMAP
F0
F0
F0
F0
ENDCHAR
STARTCHAR slash
ENCODING 47
SWIDTH 875 0
DWIDTH 14 0
BBX 10 16 2 -2
BITMAP
03C0
03C0
03C0
03C0
0F00
0F00
0F00
0F00
3C00
3C00
3C00
3C00
F000
F000
F000
F000
ENDCHAR
STARTCHAR zero
ENCODING 48
SWIDTH 1000 0
DWIDTH 16 0
BBX 12 14 2 0
BITMAP
3FC0
3FC0
F0F0
F0F0
FCF0
FCF0
FFF0
FFF0
F3F0
F3F0
F0F0
F0F0
3FC0
3FC0
ENDCHAR
STARTCHAR one
ENCODING 49
SWIDTH 1000 0
DWIDTH 16 0
BBX 12 14 2 0
BITMAP
0F00
0F00
FF00
FF00
0F00
0F00
0F00
0F00
0F00
0F00
0F00
0F00
FFF0
FFF0
ENDCHAR
STARTCHAR two
ENCODING 50
SWIDTH 1000 0
DWIDTH 16 0
BBX 12 14 2 0
BITMAP
3FC0
3FC0
F0F0
F0F0
00F0
00F0
03C0
03C0
0F00
0F00
3C00
3C00
FFF0
FFF0
ENDCHAR
STARTCHAR three
ENCODING 51
SWIDTH 1000 0
DWIDTH 16 0
BBX 12 14 2 0
BITMAP
FFC0
FFC0
00F0
00F0
00F0
00F0
3FC0
3FC0
00F0
00F0
00F0
00F0
FFC0
FFC0
ENDCHAR
STARTCHAR four
ENCODING 52
SWIDTH 1000 0
DWIDTH 16 0
BBX 12 14 2 0
BITMAP
03C0
03C0
0FC0
0FC0
3FC0
3FC0
F3C0
F3C0
FFF0
FFF0
03C0
03C0
03C0
03C0
ENDCHAR
STARTCHAR five
ENCODING 53
SWIDTH 1000 0
DWIDTH 16 0
BBX 12 14 2 0
BITMAP
FFF0
FFF0
F000
F000
FFC0
FFC0
00F0
00F0
00F0
00F0
F0F0
F0F0
3FC0
3FC0
ENDCHAR
STARTCHAR six
ENCODING 54
SWIDTH 1000 0
DWIDTH 16 0
BBX 12 14 2 0
BITMAP
3FC0
3FC0
F0F0
F0F0
F000
F000
FFC0
FFC0
F0F0
F0F0
F0F0
F0F0
3FC0
3FC0
ENDCHAR
STARTCHAR seven
ENCODING 55
SWIDTH 1000 0
DWIDTH 16 0
BBX 12 14 2 0
BITMAP
FFF0
FFF0
F0F0
F0F0
00F0
00F0
03C0
03C0
0F00
0F00
3C00
3C00
3C00
3C00
ENDCHAR
STARTCHAR eight
ENCODING 56
SWIDTH 1000 0
DWIDTH 16 0
BBX 12 14 2 0
BITMAP
3FC0
3FC0
F0F0
F0F0
F0F0
F0F0
3FC0
3FC0
F0F0
F0F0
F0F0
F0F0
3FC0
3FC0
ENDCHAR
STARTCHAR nine
ENCODING 57
SWIDTH 1000 0
DWIDTH 16 0
BBX 12 14 2 0
BITMAP
3FC0
3FC0
F0F0
F0F0
F0F0
F0F0
3FF0
3FF0
00F0
00F0
03C0
03C0
3F00
3F00
ENDCHAR
STARTCHAR colon
ENCODING 58
SWIDTH 500 0
DWIDTH 8 0
BBX 4 8 2 2
BITMAP
F0
F0
00
00
00
00
F0
F0
ENDCHAR
STARTCHAR semicolon
ENCODING 59
SWIDTH 625 0
DWIDTH 10 0
BBX 6 10 2 -2
BITMAP
3C
3C
00
00
3C
3C
3C
3C
F0
F0
ENDCHAR
STARTCHAR less
ENCODING 60
SWIDTH 750 0
DWIDTH 12 0
BBX 8 10 2 2
BITMAP
0F
0F
3C
3C
F0
F0
3C
3C
0F
0F
ENDCHAR
STARTCHAR equal
ENCODING 61
SWIDTH 1125 0
DWIDTH 18 0
BBX 14 6 2 4
BITMAP
FFFC
FFFC
0000
0000
FFFC
FFFC
ENDCHAR
STARTCHAR greater
ENCODING 62
SWIDTH 750 0
DWIDTH 12 0
BBX 8 10 2 2
BITMAP
F0
F0
3C
3C
0F
0F
3C
3C
F0
F0
ENDCHAR
STARTCHAR question
ENCODING 63
SWIDTH 1000 0
DWIDTH 16 0
BBX 12 14 2 0
BITMAP
3FC0
3FC0
F0F0
F0F0
00F0
00F0
0FC0
0FC0
3C00
3C00
0000
0000
0F00
0F00
ENDCHAR
STARTCHAR at
ENCODING 64
SWIDTH 1250 0
DWIDTH 20 0
BBX 16 14 2 0
BITMAP
3FF0
3FF0
F03C
F03C
FFFC
FFFC
F3FC
F3FC
FFF0
FFF0
F00F
F00F
3FFC
3FFC
ENDCHAR
STARTCHAR A
ENCODING 65
SWIDTH 1000 0
DWIDTH 16 0
BBX 12 14 2 0
BITMAP
3FC0
3FC0
F0F0
F0F0
F0F0
F0F0
F0F0
F0F0
FFF0
FFF0
F0F0
F0F0
F0F0
F0F0
ENDCHAR
STARTCHAR B
ENCODING 66
SWIDTH 1000 0
DWIDTH 16 0
BBX 12 14 2 0
BITMAP
FFC0
FFC0
F0F0
F0F0
F0F0
F0F0
FFC0
FFC0
F0F0
F0F0
F0F0
F0F0
FFC0
FFC0
ENDCHAR
STARTCHAR C
ENCODING 67
SWIDTH 1000 0
DWIDTH 16 0
BBX 12 14 2 0
BITMAP
3FC0
3FC0
F0F0
F0F0
F000
F000
F000
F000
F000
F000
F0F0
F0F0
3FC0
3FC0
ENDCHAR
STARTCHAR D
ENCODING 68
SWIDTH 1125 0
DWIDTH 18 0
BBX 14 14 2 0
BITMAP
FFF0
FFF0
3C3C
3C3C
3C3C
3C3C
3C3C
3C3C
3C3C
3C3C
3C3C
3C3C
3FF0
3FF0
ENDCHAR
STARTCHAR E
ENCODING 69
SWIDTH 1000 0
DWIDTH 16 0
BBX 12 14 2 0
BITMAP
FFF0
FFF0
F000
F000
F000
F000
FFC0
FFC0
F000
F000
F000
F000
FFF0
FFF0
ENDCHAR
STARTCHAR F
ENCODING 70
SWIDTH 1000 0
DWIDTH 16 0
BBX 12 14 2 0
BITMAP
FFF0
FFF0
F000
F000
F000
F000
FFC0
FFC0
F000
F000
F000
F000
F000
F000
ENDCHAR
STARTCHAR G
ENCODING 71
SWIDTH 1000 0
DWIDTH 16 0
BBX 12 14 2 0
BITMAP
3FF0
3FF0
F000
F000
F000
F000
F3F0
F3F0
F0F0
F0F0
F0F0
F0F0
3FF0
3FF0
ENDCHAR
STARTCHAR H
ENCODING 72
SWIDTH 1000 0
DWIDTH 16 0
BBX 12 14 2 0
BITMAP
F0F0
F0F0
F0F0
F0F0
F0F0
F0F0
FFF0
FFF0
F0F0
F0F0
F0F0
F0F0
F0F0
F0F0
ENDCHAR
STARTCHAR I
ENCODING 73
SWIDTH 750 0
DWIDTH 12 0
BBX 8 14 2 0
BITMAP
FF
FF
3C
3C
3C
3C
3C
3C
3C
3C
3C
3C
FF
FF
ENDCHAR
STARTCHAR J
ENCODING 74
SWIDTH 875 0
DWIDTH 14 0
BBX 10 14 2 0
BITMAP
FFC0
FFC0
0F00
0F00
0F00
0F00
0F00
0F00
0F00
0F00
0F00
0F00
FC00
FC00
ENDCHAR
STARTCHAR K
ENCODING 75
SWIDTH 1000 0
DWIDTH 16 0
BBX 12 14 2 0
BITMAP
F0F0
F0F0
F3C0
F3C0
FF00
FF00
FF00
FF00
F3C0
F3C0
F3C0
F3C0
F0F0
F0F0
ENDCHAR
STARTCHAR L
ENCODING 76
SWIDTH 875 0
DWIDTH 14 0
BBX 10 14 2 0
BITMAP
F000
F000
F000
F000
F000
F000
F000
F000
F000
F000
F000
F000
FFC0
FFC0
ENDCHAR
STARTCHAR M
ENCODING 77
SWIDTH 1125 0
DWIDTH 18 0
BBX 14 14 2 0
BITMAP
F03C
F03C
F03C
F03C
FCFC
FCFC
FFFC
FFFC
F03C
F03C
F03C
F03C
F03C
F03C
ENDCHAR
STARTCHAR N
ENCODING 78
SWIDTH 1000 0
DWIDTH 16 0
BBX 12 14 2 0
BITMAP
F0F0
F0F0
FCF0
FCF0
FFF0
FFF0
F3F0
F3F0
F0F0
F0F0
F0F0
F0F0
F0F0
F0F0
ENDCHAR
STARTCHAR O
ENCODING 79
SWIDTH 1000 0
DWIDTH 16 0
BBX 12 14 2 0
BITMAP
3FC0
3FC0
F0F0
F0F0
F0F0
F0F0
F0F0
F0F0
F0F0
F0F0
F0F0
F0F0
3FC0
3FC0
ENDCHAR
STARTCHAR P
ENCODING 80
SWIDTH 1000 0
DWIDTH 16 0
BBX 12 14 2 0
BITMAP
FFC0
FFC0
F0F0
F0F0
F0F0
F0F0
FFC0
FFC0
F000
F000
F000
F000
F000
F000
ENDCHAR
STARTCHAR Q
ENCODING 81
SWIDTH 1000 0
DWIDTH 16 0
BBX 12 14 2 0
BITMAP
3FC0
3FC0
F0F0
F0F0
F0F0
F0F0
F0F0
F0F0
FCF0
FCF0
F3C0
F3C0
3FF0
3FF0
ENDCHAR
STARTCHAR R
ENCODING 82
SWIDTH 1000 0
DWIDTH 16 0
BBX 12 14 2 0
BITMAP
FFC0
FFC0
F0F0
F0F0
F0F0
F0F0
FFC0
FFC0
F3C0
F3C0
F0F0
F0F0
F0F0
F0F0
ENDCHAR
STARTCHAR S
ENCODING 83
SWIDTH 1000 0
DWIDTH 16 0
BBX 12 14 2 0
BITMAP
3FC0
3FC0
F0F0
F0F0
F000
F000
3FC0
3FC0
00F0
00F0
F0F0
F0F0
3FC0
3FC0
ENDCHAR
STARTCHAR T
ENCODING 84
SWIDTH 1000 0
DWIDTH 16 0
BBX 12 14 2 0
BITMAP
FFF0
FFF0
0F00
0F00
0F00
0F00
0F00
0F00
0F00
0F00
0F00
0F00
0F00
0F00
ENDCHAR
STARTCHAR U
ENCODING 85
SWIDTH 1000 0
DWIDTH 16 0
BBX 12 14 2 0
BITMAP
F0F0
F0F0
F0F0
F0F0
F0F0
F0F0
F0F0
F0F0
F0F0
F0F0
F0F0
F0F0
3FC0
3FC0
ENDCHAR
STARTCHAR V
ENCODING 86
SWIDTH 1000 0
DWIDTH 16 0
BBX 12 14 2 0
BITMAP
F0F0
F0F0
F0F0
F0F0
F0F0
F0F0
F0F0
F0F0
3FC0
3FC0
3FC0
3FC0
0F00
0F00
ENDCHAR
STARTCHAR W
ENCODING 87
SWIDTH 1250 0
DWIDTH 20 0
BBX 16 14 2 0
BITMAP
F00F
F00F
F00F
F00F
F3CF
F3CF
F3CF
F3CF
F3CF
F3CF
FFFF
FFFF
3C3C
3C3C
ENDCHAR
STARTCHAR X
ENCODING 88
SWIDTH 1000 0
DWIDTH 16 0
BBX 12 14 2 0
BITMAP
F0F0
F0F0
F0F0
F0F0
3FC0
3FC0
0F00
0F00
3FC0
3FC0
F0F0
F0F0
F0F0
F0F0
ENDCHAR
STARTCHAR Y
ENCODING 89
SWIDTH 1000 0
DWIDTH 16 0
BBX 12 14 2 0
BITMAP
F0F0
F0F0
F0F0
F0F0
F0F0
F0F0
3FC0
3FC0
0F00
0F00
0F00
0F00
0F00
0F00
ENDCHAR
STARTCHAR Z
ENCODING 90
SWIDTH 1000 0
DWIDTH 16 0
BBX 12 14 2 0
BITMAP
FFF0
FFF0
00F0
00F0
03C0
03C0
0F00
0F00
3C00
3C00
F000
F000
FFF0
FFF0
ENDCHAR
STARTCHAR bracketleft
ENCODING 91
SWIDTH 625 0
DWIDTH 10 0
BBX 6 14 2 0
BITMAP
FC
FC
F0
F0
F0
F0
F0
F0
F0
F0
F0
F0
FC
FC
ENDCHAR
STARTCHAR backslash
ENCODING 92
SWIDTH 875 0
DWIDTH 14 0
BBX 10 16 2 -2
BITMAP
F000
F000
F000
F000
3C00
3C00
3C00
3C00
0F00
0F00
0F00
0F00
03C0
03C0
03C0
03C0
ENDCHAR
STARTCHAR bracketright
ENCODING 93
SWIDTH 625 0
DWIDTH 10 0
BBX 6 14 2 0
BITMAP
FC
FC
3C
3C
3C
3C
3C
3C
3C
3C
3C
3C
FC
FC
ENDCHAR
STARTCHAR asciicircum
ENCODING 94
SWIDTH 875 0
DWIDTH 14 0
BBX 10 4 2 8
BITMAP
3F00
3F00
F3C0
F3C0
ENDCHAR
STARTCHAR underscore
ENCODING 95
SWIDTH 1125 0
DWIDTH 18 0
BBX 14 2 2 -2
BITMAP
FFFC
FFFC
ENDCHAR
STARTCHAR grave
ENCODING 96
SWIDTH 625 0
DWIDTH 10 0
BBX 6 6 2 6
BITMAP
F0
F0
3C
3C
3C
3C
ENDCHAR
STARTCHAR a
ENCODING 97
SWIDTH 1000 0
DWIDTH 16 0
BBX 12 12 2 0
BITMAP
3FC0
3FC0
00F0
00F0
3FF0
3FF0
F0F0
F0F0
F0F0
F0F0
3FF0
3FF0
ENDCHAR
STARTCHAR b
ENCODING 98
SWIDTH 1000 0
DWIDTH 16 0
BBX 12 14 2 0
BITMAP
F000
F000
F000
F000
FFC0
FFC0
F0F0
F0F0
F0F0
F0F0
F0F0
F0F0
FFC0
FFC0
ENDCHAR
STARTCHAR c
ENCODING 99
SWIDTH 1000 0
DWIDTH 16 0
BBX 12 12 2 0
BITMAP
3FC0
3FC0
F0F0
F0F0
F000
F000
F000
F000
F000
F000
3FF0
3FF0
ENDCHAR
STARTCHAR d
ENCODING 100
SWIDTH 1000 0
DWIDTH 16 0
BBX 12 14 2 0
BITMAP
00F0
00F0
00F0
00F0
3FF0
3FF0
F0F0
F0F0
F0F0
F0F0
F0F0
F0F0
3FF0
3FF0
ENDCHAR
STARTCHAR e
ENCODING 101
SWIDTH 1000 0
DWIDTH 16 0
BBX 12 12 2 0
BITMAP
3FC0
3FC0
F0F0
F0F0
FFF0
FFF0
F000
F000
F000
F000
3FF0
3FF0
ENDCHAR
STARTCHAR f
ENCODING 102
SWIDTH 1000 0
DWIDTH 16 0
BBX 12 14 2 0
BITMAP
0FF0
0FF0
3C00
3C00
3C00
3C00
FFC0
FFC0
3C00
3C00
3C00
3C00
3C00
3C00
ENDCHAR
STARTCHAR g
ENCODING 103
SWIDTH 1000 0
DWIDTH 16 0
BBX 12 14 2 -2
BITMAP
3FF0
3FF0
F0F0
F0F0
F0F0
F0F0
F0F0
F0F0
3FF0
3FF0
00F0
00F0
3FC0
3FC0
ENDCHAR
STARTCHAR h
ENCODING 104
SWIDTH 1000 0
DWIDTH 16 0
BBX 12 14 2 0
BITMAP
F000
F000
F000
F000
FFC0
FFC0
FCF0
FCF0
F0F0
F0F0
F0F0
F0F0
F0F0
F0F0
ENDCHAR
STARTCHAR i
ENCODING 105
SWIDTH 750 0
DWIDTH 12 0
BBX 8 14 2 0
BITMAP
3C
3C
00
00
FC
FC
3C
3C
3C
3C
3C
3C
FF
FF
ENDCHAR
STARTCHAR j
ENCODING 106
SWIDTH 750 0
DWIDTH 12 0
BBX 8 14 2 -2
BITMAP
FF
FF
3C
3C
3C
3C
3C
3C
3C
3C
3C
3C
F0
F0
ENDCHAR
STARTCHAR k
ENCODING 107
SWIDTH 1000 0
DWIDTH 16 0
BBX 12 12 2 0
BITMAP
F0F0
F0F0
F3C0
F3C0
FF00
FF00
FF00
FF00
F3C0
F3C0
F0F0
F0F0
ENDCHAR
STARTCHAR l
ENCODING 108
SWIDTH 750 0
DWIDTH 12 0
BBX 8 12 2 0
BITMAP
F0
F0
F0
F0
F0
F0
F0
F0
F0
F0
3F
3F
ENDCHAR
STARTCHAR m
ENCODING 109
SWIDTH 1250 0
DWIDTH 20 0
BBX 16 12 2 0
BITMAP
3FFC
3FFC
F3CF
F3CF
F3CF
F3CF
F3CF
F3CF
F3CF
F3CF
F3CF
F3CF
ENDCHAR
STARTCHAR n
ENCODING 110
SWIDTH 1000 0
DWIDTH 16 0
BBX 12 12 2 0
BITMAP
0FC0
0FC0
FCF0
FCF0
F0F0
F0F0
F0F0
F0F0
F0F0
F0F0
F0F0
F0F0
ENDCHAR
STARTCHAR o
ENCODING 111
SWIDTH 1000 0
DWIDTH 16 0
BBX 12 12 2 0
BITMAP
3FC0
3FC0
F0F0
F0F0
F0F0
F0F0
F0F0
F0F0
F0F0
F0F0
3FC0
3FC0
ENDCHAR
STARTCHAR p
ENCODING 112
SWIDTH 1000 0
DWIDTH 16 0
BBX 12 14 2 -2
BITMAP
FFC0
FFC0
F0F0
F0F0
F0F0
F0F0
F0F0
F0F0
FFC0
FFC0
F000
F000
F000
F000
ENDCHAR
STARTCHAR q
ENCODING 113
SWIDTH 1000 0
DWIDTH 16 0
BBX 12 14 2 -2
BITMAP
3FF0
3FF0
F0F0
F0F0
F0F0
F0F0
F0F0
F0F0
3FF0
3FF0
00F0
00F0
00F0
00F0
ENDCHAR
STARTCHAR r
ENCODING 114
SWIDTH 875 0
DWIDTH 14 0
BBX 10 12 2 0
BITMAP
3FC0
3FC0
FC00
FC00
F000
F000
F000
F000
F000
F000
F000
F000
ENDCHAR
STARTCHAR s
ENCODING 115
SWIDTH 1000 0
DWIDTH 16 0
BBX 12 12 2 0
BITMAP
3FC0
3FC0
F000
F000
3FC0
3FC0
00F0
00F0
F0F0
F0F0
3FC0
3FC0
ENDCHAR
STARTCHAR t
ENCODING 116
SWIDTH 875 0
DWIDTH 14 0
BBX 10 14 2 0
BITMAP
F000
F000
F000
F000
FFC0
FFC0
F000
F000
F000
F000
F000
F000
3FC0
3FC0
ENDCHAR
STARTCHAR u
ENCODING 117
SWIDTH 1000 0
DWIDTH 16 0
BBX 12 12 2 0
BITMAP
F0F0
F0F0
F0F0
F0F0
F0F0
F0F0
F0F0
F0F0
F3F0
F3F0
3FF0
3FF0
ENDCHAR
STARTCHAR v
ENCODING 118
SWIDTH 1000 0
DWIDTH 16 0
BBX 12 12 2 0
BITMAP
F0F0
F0F0
F0F0
F0F0
F0F0
F0F0
3FC0
3FC0
3FC0
3FC0
0F00
0F00
ENDCHAR
STARTCHAR w
ENCODING 119
SWIDTH 1250 0
DWIDTH 20 0
BBX 16 12 2 0
BITMAP
000F
000F
F3CF
F3CF
F3CF
F3CF
F3CF
F3CF
F3CF
F3CF
3FFC
3FFC
ENDCHAR
STARTCHAR x
ENCODING 120
SWIDTH 1000 0
DWIDTH 16 0
BBX 12 12 2 0
BITMAP
F0F0
F0F0
3FC0
3FC0
0F00
0F00
0F00
0F00
3FC0
3FC0
F0F0
F0F0
ENDCHAR
STARTCHAR y
ENCODING 121
SWIDTH 875 0
DWIDTH 14 0
BBX 10 12 2 0
BITMAP
F3C0
F3C0
F3C0
F3C0
F3C0
F3C0
3F00
3F00
0F00
0F00
FC00
FC00
ENDCHAR
STARTCHAR z
ENCODING 122
SWIDTH 875 0
DWIDTH 14 0
BBX 10 12 2 0
BITMAP
FFC0
FFC0
03C0
03C0
0F00
0F00
3C00
3C00
F000
F000
FFC0
FFC0
ENDCHAR
STARTCHAR braceleft
ENCODING 123
SWIDTH 875 0
DWIDTH 14 0
BBX 10 16 2 -2
BITMAP
0F00
0F00
3CC0
3CC0
3000
3000
F000
F000
F000
F000
3000
3000
3CC0
3CC0
0F00
0F00
ENDCHAR
STARTCHAR bar
ENCODING 124
SWIDTH 500 0
DWIDTH 8 0
BBX 4 16 2 -2
BITMAP
F0
F0
F0
F0
F0
F0
F0
F0
F0
F0
F0
F0
F0
F0
F0
F0
ENDCHAR
STARTCHAR braceright
ENCODING 125
SWIDTH 875 0
DWIDTH 14 0
BBX 10 16 2 -2
BITMAP
3C00
3C00
CF00
CF00
0300
0300
03C0
03C0
03C0
03C0
0300
0300
CF00
CF00
3C00
3C00
ENDCHAR
STARTCHAR asciitilde
ENCODING 126
SWIDTH 1125 0
DWIDTH 18 0
BBX 14 4 2 4
BITMAP
3F3C
3F3C
F3F0
F3F0
ENDCHAR
STARTCHAR uni007F
ENCODING 127
SWIDTH 1000 0
DWIDTH 16 0
BBX 1 1 0 0
BITMAP
00
ENDCHAR
STARTCHAR uni00A0
ENCODING 160
SWIDTH 1000 0
DWIDTH 16 0
BBX 1 1 0 0
BITMAP
00
ENDCHAR
STARTCHAR exclamdown
ENCODING 161
SWIDTH 500 0
DWIDTH 8 0
BBX 4 14 2 0
BITMAP
F0
F0
00
00
F0
F0
F0
F0
F0
F0
F0
F0
F0
F0
ENDCHAR
STARTCHAR cent
ENCODING 162
SWIDTH 1125 0
DWIDTH 18 0
BBX 14 14 2 -2
BITMAP
0300
0300
3FF0
3FF0
F33C
F33C
F300
F300
F33C
F33C
3FF0
3FF0
0300
0300
ENDCHAR
STARTCHAR sterling
ENCODING 163
SWIDTH 1125 0
DWIDTH 18 0
BBX 14 14 2 -2
BITMAP
0FF0
0FF0
3C3C
3C3C
3C00
3C00
FFC0
FFC0
3C00
3C00
3C3C
3C3C
FFF0
FFF0
ENDCHAR
STARTCHAR currency
ENCODING 164
SWIDTH 1125 0
DWIDTH 18 0
BBX 14 12 2 0
BITMAP
F03C
F03C
0FC0
0FC0
3CF0
3CF0
3CF0
3CF0
0FC0
0FC0
F03C
F03C
ENDCHAR
STARTCHAR yen
ENCODING 165
SWIDTH 1000 0
DWIDTH 16 0
BBX 12 14 2 -2
BITMAP
F0F0
F0F0
3FC0
3FC0
0F00
0F00
FFF0
FFF0
0F00
0F00
FFF0
FFF0
0F00
0F00
ENDCHAR
STARTCHAR brokenbar
ENCODING 166
SWIDTH 500 0
DWIDTH 8 0
BBX 4 16 2 -2
BITMAP
F0
F0
F0
F0
F0
F0
00
00
F0
F0
F0
F0
F0
F0
F0
F0
ENDCHAR
STARTCHAR section
ENCODING 167
SWIDTH 875 0
DWIDTH 14 0
BBX 10 16 2 -2
BITMAP
3F00
3F00
F000
F000
3F00
3F00
F3C0
F3C0
F3C0
F3C0
3F00
3F00
03C0
03C0
3F00
3F00
ENDCHAR
STARTCHAR dieresis
ENCODING 168
SWIDTH 875 0
DWIDTH 14 0
BBX 10 2 2 10
BITMAP
F3C0
F3C0
ENDCHAR
STARTCHAR copyright
ENCODING 169
SWIDTH 1250 0
DWIDTH 20 0
BBX 16 16 2 -2
BITMAP
0FF0
0FF0
3C3C
3C3C
F3CF
F3CF
FC0F
FC0F
FC3F
FC3F
F3CF
F3CF
3C3C
3C3C
0FF0
0FF0
ENDCHAR
STARTCHAR ordfeminine
ENCODING 170
SWIDTH 1000 0
DWIDTH 16 0
BBX 12 10 2 4
BITMAP
0F00
0F00
3FC0
3FC0
30C0
30C0
0000
0000
FFF0
FFF0
ENDCHAR
STARTCHAR guillemotleft
ENCODING 171
SWIDTH 1000 0
DWIDTH 16 0
BBX 12 8 2 2
BITMAP
3CF0
3CF0
F3C0
F3C0
F3C0
F3C0
3CF0
3CF0
ENDCHAR
STARTCHAR logicalnot
ENCODING 172
SWIDTH 1125 0
DWIDTH 18 0
BBX 14 6 2 2
BITMAP
FFFC
FFFC
003C
003C
003C
003C
ENDCHAR
STARTCHAR uni00AD
ENCODING 173
SWIDTH 500 0
DWIDTH 8 0
BBX 6 2 1 6
BITMAP
FC
FC
ENDCHAR
STARTCHAR registered
ENCODING 174
SWIDTH 1250 0
DWIDTH 20 0
BBX 16 16 2 -2
BITMAP
3FFC
3FFC
F00F
F00F
F3CF
F3CF
F33F
F33F
F3CF
F3CF
F33F
F33F
F00F
F00F
3FFC
3FFC
ENDCHAR
STARTCHAR macron
ENCODING 175
SWIDTH 1125 0
DWIDTH 18 0
BBX 14 2 2 12
BITMAP
FFFC
FFFC
ENDCHAR
STARTCHAR degree
ENCODING 176
SWIDTH 750 0
DWIDTH 12 0
BBX 8 8 2 4
BITMAP
3C
3C
C3
C3
FF
FF
3C
3C
ENDCHAR
STARTCHAR plusminus
ENCODING 177
SWIDTH 1000 0
DWIDTH 16 0
BBX 12 12 2 0
BITMAP
0F00
0F00
0F00
0F00
FFF0
FFF0
0F00
0F00
0F00
0F00
FFF0
FFF0
ENDCHAR
STARTCHAR uni00B2
ENCODING 178
SWIDTH 750 0
DWIDTH 12 0
BBX 8 10 2 4
BITMAP
FC
FC
0F
0F
3C
3C
F0
F0
FF
FF
ENDCHAR
STARTCHAR uni00B3
ENCODING 179
SWIDTH 750 0
DWIDTH 12 0
BBX 8 10 2 4
BITMAP
FC
FC
0F
0F
3C
3C
0F
0F
FC
FC
ENDCHAR
STARTCHAR acute
ENCODING 180
SWIDTH 625 0
DWIDTH 10 0
BBX 6 4 2 10
BITMAP
3C
3C
F0
F0
ENDCHAR
STARTCHAR mu
ENCODING 181
SWIDTH 1125 0
DWIDTH 18 0
BBX 14 14 2 -2
BITMAP
F0F0
F0F0
F0F0
F0F0
F0F0
F0F0
F3F0
F3F0
FFF0
FFF0
F03C
F03C
F000
F000
ENDCHAR
STARTCHAR paragraph
ENCODING 182
SWIDTH 1000 0
DWIDTH 16 0
BBX 12 16 2 -2
BITMAP
3FF0
3FF0
FF30
FF30
FF30
FF30
3F30
3F30
0F30
0F30
0F30
0F30
0F30
0F30
0F30
0F30
ENDCHAR
STARTCHAR periodcentered
ENCODING 183
SWIDTH 625 0
DWIDTH 10 0
BBX 6 4 2 4
BITMAP
FC
FC
FC
FC
ENDCHAR
STARTCHAR cedilla
ENCODING 184
SWIDTH 625 0
DWIDTH 10 0
BBX 6 4 2 -2
BITMAP
F0
F0
3C
3C
ENDCHAR
STARTCHAR uni00B9
ENCODING 185
SWIDTH 750 0
DWIDTH 12 0
BBX 8 10 2 4
BITMAP
3C
3C
FC
FC
3C
3C
3C
3C
FF
FF
ENDCHAR
STARTCHAR ordmasculine
ENCODING 186
SWIDTH 1125 0
DWIDTH 18 0
BBX 14 10 2 4
BITMAP
3FF0
3FF0
3CF0
3CF0
3FF0
3FF0
0000
0000
FFFC
FFFC
ENDCHAR
STARTCHAR guillemotright
ENCODING 187
SWIDTH 1000 0
DWIDTH 16 0
BBX 12 8 2 2
BITMAP
F3C0
F3C0
3CF0
3CF0
3CF0
3CF0
F3C0
F3C0
ENDCHAR
STARTCHAR onequarter
ENCODING 188
SWIDTH 1250 0
DWIDTH 20 0
BBX 16 16 2 -2
BITMAP
FC30
FC30
3CF0
3CF0
3FC0
3FC0
FFCF
FFCF
0F3F
0F3F
0FCF
0FCF
3CFF
3CFF
300F
300F
ENDCHAR
STARTCHAR onehalf
ENCODING 189
SWIDTH 1250 0
DWIDTH 20 0
BBX 16 16 2 -2
BITMAP
FC0C
FC0C
3C3C
3C3C
3CF0
3CF0
FFFC
FFFC
03CF
03CF
0F3C
0F3C
3CF0
3CF0
F0FF
F0FF
ENDCHAR
STARTCHAR threequarters
ENCODING 190
SWIDTH 1250 0
DWIDTH 20 0
BBX 16 16 2 -2
BITMAP
FC0C
FC0C
0F3C
0F3C
3CF0
3CF0
0FCF
0FCF
FF3F
FF3F
0FCF
0FCF
3CFF
3CFF
F00F
F00F
ENDCHAR
STARTCHAR questiondown
ENCODING 191
SWIDTH 1000 0
DWIDTH 16 0
BBX 12 14 2 -2
BITMAP
0F00
0F00
0000
0000
03C0
03C0
3F00
3F00
F000
F000
F0F0
F0F0
3FC0
3FC0
ENDCHAR
STARTCHAR Agrave
ENCODING 192
SWIDTH 1125 0
DWIDTH 18 0
BBX 14 14 2 0
BITMAP
F000
F000
3C00
3C00
0FF0
0FF0
3C3C
3C3C
3C3C
3C3C
3FFC
3FFC
3C3C
3C3C
ENDCHAR
STARTCHAR Aacute
ENCODING 193
SWIDTH 1125 0
DWIDTH 18 0
BBX 14 14 2 0
BITMAP
003C
003C
00F0
00F0
3FC0
3FC0
F0F0
F0F0
F0F0
F0F0
FFF0
FFF0
F0F0
F0F0
ENDCHAR
STARTCHAR Acircumflex
ENCODING 194
SWIDTH 1250 0
DWIDTH 20 0
BBX 16 14 2 0
BITMAP
3FFC
3FFC
F00F
F00F
0FF0
0FF0
3C3C
3C3C
3C3C
3C3C
3FFC
3FFC
3C3C
3C3C
ENDCHAR
STARTCHAR Atilde
ENCODING 195
SWIDTH 1250 0
DWIDTH 20 0
BBX 16 14 2 0
BITMAP
3FCF
3FCF
F0FC
F0FC
0FF0
0FF0
3C3C
3C3C
3C3C
3C3C
3FFC
3FFC
3C3C
3C3C
ENDCHAR
STARTCHAR Adieresis
ENCODING 196
SWIDTH 1000 0
DWIDTH 16 0
BBX 12 14 2 0
BITMAP
F0F0
F0F0
0000
0000
3FC0
3FC0
F0F0
F0F0
F0F0
F0F0
FFF0
FFF0
F0F0
F0F0
ENDCHAR
STARTCHAR Aring
ENCODING 197
SWIDTH 1000 0
DWIDTH 16 0
BBX 12 14 2 0
BITMAP
0F00
0F00
30C0
30C0
3FC0
3FC0
F0F0
F0F0
F0F0
F0F0
FFF0
FFF0
F0F0
F0F0
ENDCHAR
STARTCHAR AE
ENCODING 198
SWIDTH 1250 0
DWIDTH 20 0
BBX 16 14 2 0
BITMAP
03FF
03FF
0FF0
0FF0
3CF0
3CF0
3FFF
3FFF
F0F0
F0F0
F0F0
F0F0
F0FF
F0FF
ENDCHAR
STARTCHAR Ccedilla
ENCODING 199
SWIDTH 1000 0
DWIDTH 16 0
BBX 12 16 2 -2
BITMAP
3FC0
3FC0
F0F0
F0F0
F000
F000
F000
F000
F000
F000
F0F0
F0F0
3FC0
3FC0
00F0
00F0
ENDCHAR
STARTCHAR Egrave
ENCODING 200
SWIDTH 1125 0
DWIDTH 18 0
BBX 14 14 2 0
BITMAP
F000
F000
3C00
3C00
3FFC
3FFC
3C00
3C00
3FF0
3FF0
3C00
3C00
3FFC
3FFC
ENDCHAR
STARTCHAR Eacute
ENCODING 201
SWIDTH 1250 0
DWIDTH 20 0
BBX 16 14 2 0
BITMAP
000F
000F
003C
003C
FFF0
FFF0
F000
F000
FFC0
FFC0
F000
F000
FFF0
FFF0
ENDCHAR
STARTCHAR Ecircumflex
ENCODING 202
SWIDTH 1250 0
DWIDTH 20 0
BBX 16 14 2 0
BITMAP
3FFC
3FFC
F00F
F00F
0FF0
0FF0
0F00
0F00
0FF0
0FF0
0F00
0F00
0FF0
0FF0
ENDCHAR
STARTCHAR Edieresis
ENCODING 203
SWIDTH 1000 0
DWIDTH 16 0
BBX 12 14 2 0
BITMAP
F0F0
F0F0
0000
0000
FFF0
FFF0
F000
F000
FFC0
FFC0
F000
F000
FFF0
FFF0
ENDCHAR
STARTCHAR Igrave
ENCODING 204
SWIDTH 750 0
DWIDTH 12 0
BBX 8 14 2 0
BITMAP
F0
F0
3C
3C
00
00
3C
3C
3C
3C
3C
3C
FF
FF
ENDCHAR
STARTCHAR Iacute
ENCODING 205
SWIDTH 750 0
DWIDTH 12 0
BBX 8 14 2 0
BITMAP
0F
0F
3C
3C
00
00
3C
3C
3C
3C
3C
3C
FF
FF
ENDCHAR
STARTCHAR Icircumflex
ENCODING 206
SWIDTH 1000 0
DWIDTH 16 0
BBX 12 14 2 0
BITMAP
3FC0
3FC0
F0F0
F0F0
0F00
0F00
0F00
0F00
0F00
0F00
0F00
0F00
3FC0
3FC0
ENDCHAR
STARTCHAR Idieresis
ENCODING 207
SWIDTH 1000 0
DWIDTH 16 0
BBX 12 14 2 0
BITMAP
F0F0
F0F0
0000
0000
0F00
0F00
0F00
0F00
0F00
0F00
0F00
0F00
3FC0
3FC0
ENDCHAR
STARTCHAR Eth
ENCODING 208
SWIDTH 1125 0
DWIDTH 18 0
BBX 14 14 2 0
BITMAP
FFF0
FFF0
3C3C
3C3C
3C3C
3C3C
3C3C
3C3C
FF3C
FF3C
3C3C
3C3C
3FF0
3FF0
ENDCHAR
STARTCHAR Ntilde
ENCODING 209
SWIDTH 1250 0
DWIDTH 20 0
BBX 16 14 2 0
BITMAP
3FCF
3FCF
F0FC
F0FC
0F00
0F00
0FCC
0FCC
0FFC
0FFC
0F3C
0F3C
0F3C
0F3C
ENDCHAR
STARTCHAR Ograve
ENCODING 210
SWIDTH 1125 0
DWIDTH 18 0
BBX 14 14 2 0
BITMAP
F000
F000
3C00
3C00
0FF0
0FF0
3C3C
3C3C
3C3C
3C3C
3C3C
3C3C
0FF0
0FF0
ENDCHAR
STARTCHAR Oacute
ENCODING 211
SWIDTH 1125 0
DWIDTH 18 0
BBX 14 14 2 0
BITMAP
003C
003C
00F0
00F0
3FC0
3FC0
F0F0
F0F0
F0F0
F0F0
F0F0
F0F0
3FC0
3FC0
ENDCHAR
STARTCHAR Ocircumflex
ENCODING 212
SWIDTH 1250 0
DWIDTH 20 0
BBX 16 14 2 0
BITMAP
3FFC
3FFC
F00F
F00F
0FF0
0FF0
3C3C
3C3C
3C3C
3C3C
3C3C
3C3C
0FF0
0FF0
ENDCHAR
STARTCHAR Otilde
ENCODING 213
SWIDTH 1250 0
DWIDTH 20 0
BBX 16 14 2 0
BITMAP
3FCF
3FCF
F0FC
F0FC
0FF0
0FF0
3C3C
3C3C
3C3C
3C3C
3C3C
3C3C
0FF0
0FF0
ENDCHAR
STARTCHAR Odieresis
ENCODING 214
SWIDTH 1000 0
DWIDTH 16 0
BBX 12 14 2 0
BITMAP
F0F0
F0F0
0000
0000
3FC0
3FC0
F0F0
F0F0
F0F0
F0F0
F0F0
F0F0
3FC0
3FC0
ENDCHAR
STARTCHAR multiply
ENCODING 215
SWIDTH 1000 0
DWIDTH 16 0
BBX 12 10 2 2
BITMAP
F0F0
F0F0
3FC0
3FC0
0F00
0F00
3FC0
3FC0
F0F0
F0F0
ENDCHAR
STARTCHAR Oslash
ENCODING 216
SWIDTH 1125 0
DWIDTH 18 0
BBX 14 14 2 0
BITMAP
3F3C
3F3C
F0F0
F0F0
F3FC
F3FC
FF3C
FF3C
FF3C
FF3C
3C3C
3C3C
F3F0
F3F0
ENDCHAR
STARTCHAR Ugrave
ENCODING 217
SWIDTH 1125 0
DWIDTH 18 0
BBX 14 14 2 0
BITMAP
F000
F000
3C00
3C00
3C3C
3C3C
3C3C
3C3C
3C3C
3C3C
3C3C
3C3C
0FF0
0FF0
ENDCHAR
STARTCHAR Uacute
ENCODING 218
SWIDTH 1125 0
DWIDTH 18 0
BBX 14 14 2 0
BITMAP
003C
003C
00F0
00F0
F0F0
F0F0
F0F0
F0F0
F0F0
F0F0
F0F0
F0F0
3FC0
3FC0
ENDCHAR
STARTCHAR Ucircumflex
ENCODING 219
SWIDTH 1250 0
DWIDTH 20 0
BBX 16 14 2 0
BITMAP
3FFC
3FFC
F00F
F00F
0000
0000
3C3C
3C3C
3C3C
3C3C
3C3C
3C3C
0FF0
0FF0
ENDCHAR
STARTCHAR Udieresis
ENCODING 220
SWIDTH 1000 0
DWIDTH 16 0
BBX 12 14 2 0
BITMAP
F0F0
F0F0
0000
0000
F0F0
F0F0
F0F0
F0F0
F0F0
F0F0
F0F0
F0F0
3FC0
3FC0
ENDCHAR
STARTCHAR Yacute
ENCODING 221
SWIDTH 1000 0
DWIDTH 16 0
BBX 12 14 2 0
BITMAP
00F0
00F0
F3C0
F3C0
F000
F000
F0F0
F0F0
3FC0
3FC0
0F00
0F00
0F00
0F00
ENDCHAR
STARTCHAR Thorn
ENCODING 222
SWIDTH 875 0
DWIDTH 14 0
BBX 10 12 2 0
BITMAP
F000
F000
FF00
FF00
F3C0
F3C0
F3C0
F3C0
FF00
FF00
F000
F000
ENDCHAR
STARTCHAR germandbls
ENCODING 223
SWIDTH 1000 0
DWIDTH 16 0
BBX 12 16 2 -2
BITMAP
3F00
3F00
F3C0
F3C0
F3C0
F3C0
FFF0
FFF0
F0F0
F0F0
F0F0
F0F0
FFC0
FFC0
F000
F000
ENDCHAR
STARTCHAR agrave
ENCODING 224
SWIDTH 1125 0
DWIDTH 18 0
BBX 14 14 2 0
BITMAP
F000
F000
3C00
3C00
0FF0
0FF0
3C3C
3C3C
3C3C
3C3C
3FFC
3FFC
3C3C
3C3C
ENDCHAR
STARTCHAR aacute
ENCODING 225
SWIDTH 1125 0
DWIDTH 18 0
BBX 14 14 2 0
BITMAP
003C
003C
00F0
00F0
3FC0
3FC0
F0F0
F0F0
F0F0
F0F0
FFF0
FFF0
F0F0
F0F0
ENDCHAR
STARTCHAR acircumflex
ENCODING 226
SWIDTH 1250 0
DWIDTH 20 0
BBX 16 14 2 0
BITMAP
3FFC
3FFC
F00F
F00F
0FF0
0FF0
3C3C
3C3C
3C3C
3C3C
3FFC
3FFC
3C3C
3C3C
ENDCHAR
STARTCHAR atilde
ENCODING 227
SWIDTH 1250 0
DWIDTH 20 0
BBX 16 14 2 0
BITMAP
3FCF
3FCF
F0FC
F0FC
0FF0
0FF0
3C3C
3C3C
3C3C
3C3C
3FFC
3FFC
3C3C
3C3C
ENDCHAR
STARTCHAR adieresis
ENCODING 228
SWIDTH 1000 0
DWIDTH 16 0
BBX 12 14 2 0
BITMAP
F0F0
F0F0
0000
0000
3FC0
3FC0
F0F0
F0F0
F0F0
F0F0
FFF0
FFF0
F0F0
F0F0
ENDCHAR
STARTCHAR aring
ENCODING 229
SWIDTH 1000 0
DWIDTH 16 0
BBX 12 14 2 0
BITMAP
0F00
0F00
30C0
30C0
3FC0
3FC0
F0F0
F0F0
F0F0
F0F0
FFF0
FFF0
F0F0
F0F0
ENDCHAR
STARTCHAR ae
ENCODING 230
SWIDTH 1250 0
DWIDTH 20 0
BBX 16 12 2 0
BITMAP
03FF
03FF
0FF0
0FF0
3CF0
3CF0
3FFF
3FFF
F0F0
F0F0
F0FF
F0FF
ENDCHAR
STARTCHAR ccedilla
ENCODING 231
SWIDTH 1000 0
DWIDTH 16 0
BBX 12 14 2 -2
BITMAP
3FC0
3FC0
F0F0
F0F0
F000
F000
F000
F000
F0F0
F0F0
3FC0
3FC0
00F0
00F0
ENDCHAR
STARTCHAR egrave
ENCODING 232
SWIDTH 1125 0
DWIDTH 18 0
BBX 14 14 2 0
BITMAP
F000
F000
3C00
3C00
3FFC
3FFC
3C00
3C00
3FF0
3FF0
3C00
3C00
3FFC
3FFC
ENDCHAR
STARTCHAR eacute
ENCODING 233
SWIDTH 1250 0
DWIDTH 20 0
BBX 16 14 2 0
BITMAP
000F
000F
003C
003C
FFF0
FFF0
F000
F000
FFC0
FFC0
F000
F000
FFF0
FFF0
ENDCHAR
STARTCHAR ecircumflex
ENCODING 234
SWIDTH 1250 0
DWIDTH 20 0
BBX 16 14 2 0
BITMAP
3FFC
3FFC
F00F
F00F
0FF0
0FF0
0F00
0F00
0FF0
0FF0
0F00
0F00
0FF0
0FF0
ENDCHAR
STARTCHAR edieresis
ENCODING 235
SWIDTH 1000 0
DWIDTH 16 0
BBX 12 14 2 0
BITMAP
F0F0
F0F0
0000
0000
FFF0
FFF0
F000
F000
FFC0
FFC0
F000
F000
FFF0
FFF0
ENDCHAR
STARTCHAR igrave
ENCODING 236
SWIDTH 750 0
DWIDTH 12 0
BBX 8 14 2 0
BITMAP
F0
F0
3C
3C
00
00
3C
3C
3C
3C
3C
3C
FF
FF
ENDCHAR
STARTCHAR iacute
ENCODING 237
SWIDTH 750 0
DWIDTH 12 0
BBX 8 14 2 0
BITMAP
0F
0F
3C
3C
00
00
3C
3C
3C
3C
3C
3C
FF
FF
ENDCHAR
STARTCHAR icircumflex
ENCODING 238
SWIDTH 1000 0
DWIDTH 16 0
BBX 12 14 2 0
BITMAP
3FC0
3FC0
F0F0
F0F0
0F00
0F00
0F00
0F00
0F00
0F00
0F00
0F00
3FC0
3FC0
ENDCHAR
STARTCHAR idieresis
ENCODING 239
SWIDTH 1000 0
DWIDTH 16 0
BBX 12 14 2 0
BITMAP
F0F0
F0F0
0000
0000
0F00
0F00
0F00
0F00
0F00
0F00
0F00
0F00
3FC0
3FC0
ENDCHAR
STARTCHAR eth
ENCODING 240
SWIDTH 1125 0
DWIDTH 18 0
BBX 14 14 2 0
BITMAP
00F0
00F0
00F0
00F0
3FFC
3FFC
F0F0
F0F0
F0F0
F0F0
F0F0
F0F0
3FC0
3FC0
ENDCHAR
STARTCHAR ntilde
ENCODING 241
SWIDTH 1250 0
DWIDTH 20 0
BBX 16 14 2 0
BITMAP
3FCF
3FCF
F0FC
F0FC
0F00
0F00
0FCC
0FCC
0FFC
0FFC
0F3C
0F3C
0F3C
0F3C
ENDCHAR
STARTCHAR ograve
ENCODING 242
SWIDTH 1125 0
DWIDTH 18 0
BBX 14 14 2 0
BITMAP
F000
F000
3C00
3C00
0FF0
0FF0
3C3C
3C3C
3C3C
3C3C
3C3C
3C3C
0FF0
0FF0
ENDCHAR
STARTCHAR oacute
ENCODING 243
SWIDTH 1125 0
DWIDTH 18 0
BBX 14 14 2 0
BITMAP
003C
003C
00F0
00F0
3FC0
3FC0
F0F0
F0F0
F0F0
F0F0
F0F0
F0F0
3FC0
3FC0
ENDCHAR
STARTCHAR ocircumflex
ENCODING 244
SWIDTH 1250 0
DWIDTH 20 0
BBX 16 14 2 0
BITMAP
3FFC
3FFC
F00F
F00F
0FF0
0FF0
3C3C
3C3C
3C3C
3C3C
3C3C
3C3C
0FF0
0FF0
ENDCHAR
STARTCHAR otilde
ENCODING 245
SWIDTH 1250 0
DWIDTH 20 0
BBX 16 14 2 0
BITMAP
3FCF
3FCF
F0FC
F0FC
0FF0
0FF0
3C3C
3C3C
3C3C
3C3C
3C3C
3C3C
0FF0
0FF0
ENDCHAR
STARTCHAR odieresis
ENCODING 246
SWIDTH 1000 0
DWIDTH 16 0
BBX 12 14 2 0
BITMAP
F0F0
F0F0
0000
0000
3FC0
3FC0
F0F0
F0F0
F0F0
F0F0
F0F0
F0F0
3FC0
3FC0
ENDCHAR
STARTCHAR divide
ENCODING 247
SWIDTH 1000 0
DWIDTH 16 0
BBX 12 10 2 2
BITMAP
0F00
0F00
0000
0000
FFF0
FFF0
0000
0000
0F00
0F00
ENDCHAR
STARTCHAR oslash
ENCODING 248
SWIDTH 1125 0
DWIDTH 18 0
BBX 14 12 2 0
BITMAP
3F3C
3F3C
F0F0
F0F0
F3FC
F3FC
FF3C
FF3C
3C3C
3C3C
F3F0
F3F0
ENDCHAR
STARTCHAR ugrave
ENCODING 249
SWIDTH 1125 0
DWIDTH 18 0
BBX 14 14 2 0
BITMAP
F000
F000
3C00
3C00
3C3C
3C3C
3C3C
3C3C
3C3C
3C3C
3C3C
3C3C
0FF0
0FF0
ENDCHAR
STARTCHAR uacute
ENCODING 250
SWIDTH 1125 0
DWIDTH 18 0
BBX 14 14 2 0
BITMAP
003C
003C
00F0
00F0
F0F0
F0F0
F0F0
F0F0
F0F0
F0F0
F0F0
F0F0
3FC0
3FC0
ENDCHAR
STARTCHAR ucircumflex
ENCODING 251
SWIDTH 1250 0
DWIDTH 20 0
BBX 16 14 2 0
BITMAP
3FFC
3FFC
F00F
F00F
0000
0000
3C3C
3C3C
3C3C
3C3C
3C3C
3C3C
0FF0
0FF0
ENDCHAR
STARTCHAR udieresis
ENCODING 252
SWIDTH 1000 0
DWIDTH 16 0
BBX 12 14 2 0
BITMAP
F0F0
F0F0
0000
0000
F0F0
F0F0
F0F0
F0F0
F0F0
F0F0
F0F0
F0F0
3FC0
3FC0
ENDCHAR
STARTCHAR yacute
ENCODING 253
SWIDTH 1000 0
DWIDTH 16 0
BBX 12 14 2 0
BITMAP
03C0
03C0
0F00
0F00
0000
0000
F0F0
F0F0
3FC0
3FC0
0F00
0F00
0F00
0F00
ENDCHAR
STARTCHAR thorn
ENCODING 254
SWIDTH 875 0
DWIDTH 14 0
BBX 10 12 2 0
BITMAP
F000
F000
FF00
FF00
F3C0
F3C0
F3C0
F3C0
FF00
FF00
F000
F000
ENDCHAR
STARTCHAR ydieresis
ENCODING 255
SWIDTH 1000 0
DWIDTH 16 0
BBX 12 14 2 0
BITMAP
F0F0
F0F0
0000
0000
F0F0
F0F0
F0F0
F0F0
3FC0
3FC0
0F00
0F00
0F00
0F00
ENDCHAR
STARTCHAR IJ
ENCODING 306
SWIDTH 1250 0
DWIDTH 20 0
BBX 16 14 2 0
BITMAP
FF3F
FF3F
3C0F
3C0F
3C0F
3C0F
3C0F
3C0F
3C0F
3C0F
3C0F
3C0F
FF3C
FF3C
ENDCHAR
STARTCHAR ij
ENCODING 307
SWIDTH 1250 0
DWIDTH 20 0
BBX 16 16 2 -2
BITMAP
3C00
3C00
00FF
00FF
FC3C
FC3C
3C3C
3C3C
3C3C
3C3C
3C3C
3C3C
FF3C
FF3C
00F0
00F0
ENDCHAR
STARTCHAR Ldot
ENCODING 319
SWIDTH 1000 0
DWIDTH 16 0
BBX 12 14 2 0
BITMAP
F000
F000
F000
F000
F0F0
F0F0
F000
F000
F000
F000
F000
F000
FFC0
FFC0
ENDCHAR
STARTCHAR ldot
ENCODING 320
SWIDTH 1000 0
DWIDTH 16 0
BBX 12 12 2 0
BITMAP
F000
F000
F0F0
F0F0
F000
F000
F000
F000
F000
F000
3F00
3F00
ENDCHAR
STARTCHAR napostrophe
ENCODING 329
SWIDTH 1250 0
DWIDTH 20 0
BBX 16 14 2 0
BITMAP
3C00
3C00
F0FC
F0FC
0FCF
0FCF
0F0F
0F0F
0F0F
0F0F
0F0F
0F0F
0F0F
0F0F
ENDCHAR
STARTCHAR OE
ENCODING 338
SWIDTH 1250 0
DWIDTH 20 0
BBX 16 14 2 0
BITMAP
3FFF
3FFF
F0F0
F0F0
F0F0
F0F0
F0FF
F0FF
F0F0
F0F0
F3F0
F3F0
3FFF
3FFF
ENDCHAR
STARTCHAR oe
ENCODING 339
SWIDTH 1250 0
DWIDTH 20 0
BBX 16 12 2 0
BITMAP
3FFF
3FFF
F0F0
F0F0
F0F0
F0F0
F0FF
F0FF
F3F0
F3F0
3FFF
3FFF
ENDCHAR
STARTCHAR Scaron
ENCODING 352
SWIDTH 1000 0
DWIDTH 16 0
BBX 12 14 2 0
BITMAP
F0F0
F0F0
3FC0
3FC0
F000
F000
3FC0
3FC0
00F0
00F0
F0F0
F0F0
3FC0
3FC0
ENDCHAR
STARTCHAR scaron
ENCODING 353
SWIDTH 1000 0
DWIDTH 16 0
BBX 12 14 2 0
BITMAP
F0F0
F0F0
3FC0
3FC0
F000
F000
3FC0
3FC0
00F0
00F0
F0F0
F0F0
3FC0
3FC0
ENDCHAR
STARTCHAR Ydieresis
ENCODING 376
SWIDTH 1000 0
DWIDTH 16 0
BBX 12 14 2 0
BITMAP
F0F0
F0F0
0000
0000
F0F0
F0F0
3FC0
3FC0
0F00
0F00
0F00
0F00
0F00
0F00
ENDCHAR
STARTCHAR Zcaron
ENCODING 381
SWIDTH 1000 0
DWIDTH 16 0
BBX 12 14 2 0
BITMAP
F0F0
F0F0
3FF0
3FF0
03C0
03C0
0F00
0F00
3C00
3C00
F000
F000
FFF0
FFF0
ENDCHAR
STARTCHAR zcaron
ENCODING 382
SWIDTH 1125 0
DWIDTH 18 0
BBX 14 14 2 0
BITMAP
F03C
F03C
3FF0
3FF0
00F0
00F0
03C0
03C0
0F00
0F00
3C00
3C00
3FF0
3FF0
ENDCHAR
STARTCHAR florin
ENCODING 402
SWIDTH 750 0
DWIDTH 12 0
BBX 8 12 2 0
BITMAP
0F
0F
3C
3C
FF
FF
3C
3C
3C
3C
F0
F0
ENDCHAR
STARTCHAR circumflex
ENCODING 710
SWIDTH 1000 0
DWIDTH 16 0
BBX 12 6 2 8
BITMAP
0F00
0F00
3FC0
3FC0
F0F0
F0F0
ENDCHAR
STARTCHAR tilde
ENCODING 732
SWIDTH 1000 0
DWIDTH 16 0
BBX 12 4 2 8
BITMAP
3CF0
3CF0
F3C0
F3C0
ENDCHAR
STARTCHAR endash
ENCODING 8211
SWIDTH 750 0
DWIDTH 12 0
BBX 8 2 2 8
BITMAP
FF
FF
ENDCHAR
STARTCHAR emdash
ENCODING 8212
SWIDTH 1000 0
DWIDTH 16 0
BBX 12 2 2 6
BITMAP
FFF0
FFF0
ENDCHAR
STARTCHAR quoteleft
ENCODING 8216
SWIDTH 625 0
DWIDTH 10 0
BBX 6 6 2 6
BITMAP
F0
F0
F0
F0
3C
3C
ENDCHAR
STARTCHAR quoteright
ENCODING 8217
SWIDTH 625 0
DWIDTH 10 0
BBX 6 6 2 6
BITMAP
F0
F0
3C
3C
3C
3C
ENDCHAR
STARTCHAR quotesinglbase
ENCODING 8218
SWIDTH 625 0
DWIDTH 10 0
BBX 6 6 2 -2
BITMAP
3C
3C
3C
3C
F0
F0
ENDCHAR
STARTCHAR quotedblleft
ENCODING 8220
SWIDTH 1000 0
DWIDTH 16 0
BBX 12 6 2 6
BITMAP
F3C0
F3C0
F3C0
F3C0
3CF0
3CF0
ENDCHAR
STARTCHAR quotedblright
ENCODING 8221
SWIDTH 1000 0
DWIDTH 16 0
BBX 12 6 2 6
BITMAP
F3C0
F3C0
3CF0
3CF0
3CF0
3CF0
ENDCHAR
STARTCHAR quotedblbase
ENCODING 8222
SWIDTH 1000 0
DWIDTH 16 0
BBX 12 6 2 -2
BITMAP
3CF0
3CF0
3CF0
3CF0
F3C0
F3C0
ENDCHAR
STARTCHAR dagger
ENCODING 8224
SWIDTH 1000 0
DWIDTH 16 0
BBX 12 12 2 0
BITMAP
0F00
0F00
3FC0
3FC0
CF30
CF30
0F00
0F00
0F00
0F00
0F00
0F00
ENDCHAR
STARTCHAR daggerdbl
ENCODING 8225
SWIDTH 1000 0
DWIDTH 16 0
BBX 12 16 2 -2
BITMAP
0F00
0F00
3FC0
3FC0
CF30
CF30
0F00
0F00
0F00
0F00
CF30
CF30
3FC0
3FC0
0F00
0F00
ENDCHAR
STARTCHAR bullet
ENCODING 8226
SWIDTH 875 0
DWIDTH 14 0
BBX 10 8 2 2
BITMAP
3F00
3F00
FFC0
FFC0
FFC0
FFC0
3F00
3F00
ENDCHAR
STARTCHAR ellipsis
ENCODING 8230
SWIDTH 1250 0
DWIDTH 20 0
BBX 16 2 2 0
BITMAP
F3CF
F3CF
ENDCHAR
STARTCHAR perthousand
ENCODING 8240
SWIDTH 1250 0
DWIDTH 20 0
BBX 16 16 2 -2
BITMAP
0C0C
0C0C
333C
333C
3F30
3F30
0CC0
0CC0
0CCC
0CCC
3333
3333
F3FF
F3FF
C0CC
C0CC
ENDCHAR
STARTCHAR guilsinglleft
ENCODING 8249
SWIDTH 625 0
DWIDTH 10 0
BBX 6 8 2 2
BITMAP
3C
3C
F0
F0
F0
F0
3C
3C
ENDCHAR
STARTCHAR guilsinglright
ENCODING 8250
SWIDTH 625 0
DWIDTH 10 0
BBX 6 8 2 2
BITMAP
F0
F0
3C
3C
3C
3C
F0
F0
ENDCHAR
STARTCHAR Euro
ENCODING 8364
SWIDTH 1250 0
DWIDTH 20 0
BBX 16 14 2 -2
BITMAP
0FFC
0FFC
3C0F
3C0F
FFF0
FFF0
3C00
3C00
FFC0
FFC0
3C0F
3C0F
0FFC
0FFC
ENDCHAR
STARTCHAR trademark
ENCODING 8482
SWIDTH 1250 0
DWIDTH 20 0
BBX 16 8 2 6
BITMAP
FF0F
FF0F
3CFF
3CFF
3CCF
3CCF
3CCF
3CCF
ENDCHAR
STARTCHAR .notdef
ENCODING -1
SWIDTH 360 0
DWIDTH 6 0
BBX 5 11 1 0
BITMAP
F8
88
88
88
88
88
88
88
88
88
F8
ENDCHAR
STARTCHAR NameMe.129
ENCODING -1
SWIDTH 1000 0
DWIDTH 16 0
BBX 1 1 0 0
BITMAP
00
ENDCHAR
STARTCHAR NameMe.141
ENCODING -1
SWIDTH 1000 0
DWIDTH 16 0
BBX 1 1 0 0
BITMAP
00
ENDCHAR
STARTCHAR NameMe.143
ENCODING -1
SWIDTH 1000 0
DWIDTH 16 0
BBX 1 1 0 0
BITMAP
00
ENDCHAR
STARTCHAR NameMe.144
ENCODING -1
SWIDTH 1000 0
DWIDTH 16 0
BBX 1 1 0 0
BITMAP
00
ENDCHAR
STARTCHAR NameMe.157
ENCODING -1
SWIDTH 1000 0
DWIDTH 16 0
BBX 1 1 0 0
BITMAP
00
ENDCHAR
ENDFONT
